<svg width="793.20111" height="497.79182" xmlns="http://www.w3.org/2000/svg" source="https://undraw.co/" artist="Katerina Limpitsouni" role="img">

 <g>
  <title>Layer 1</title>
  <path id="svg_1" stroke-width="0" fill="#fff" d="m782.90501,496.79182l-772.60891,0c-5.12617,0 -9.2961,-4.16993 -9.2961,-9.2961l0,-477.19962c0,-5.12617 4.16993,-9.2961 9.2961,-9.2961l772.60892,0c5.12617,0 9.2961,4.16993 9.2961,9.2961l0,477.19962c0,5.12617 -4.16993,9.2961 -9.2961,9.2961l-0.00001,0z"/>
  <path id="svg_2" stroke-width="0" stroke-miterlimit="10" fill="#0e0d1c" d="m782.90501,496.79182l-772.60891,0c-5.12617,0 -9.2961,-4.16993 -9.2961,-9.2961l0,-477.19962c0,-5.12617 4.16993,-9.2961 9.2961,-9.2961l772.60892,0c5.12617,0 9.2961,4.16993 9.2961,9.2961l0,477.19962c0,5.12617 -4.16993,9.2961 -9.2961,9.2961l-0.00001,0z"/>
  <path id="svg_3" stroke-width="0" fill="#9b9999" d="m61.94108,42.31598l-35.11859,0c-5.12617,0 -9.2961,-4.16993 -9.2961,-9.2961l0,-4.1316c0,-5.12617 4.16993,-9.2961 9.2961,-9.2961l35.11859,0c5.12617,0 9.2961,4.16993 9.2961,9.2961l0,4.1316c0,5.12617 -4.16993,9.2961 -9.2961,9.2961z"/>
  <path id="svg_4" stroke-width="0" fill="#9b9999" d="m683.74665,42.31598l-20.65799,0c-5.12617,0 -9.2961,-4.16993 -9.2961,-9.2961l0,-4.1316c0,-5.12617 4.16993,-9.2961 9.2961,-9.2961l20.65799,0c5.12617,0 9.2961,4.16993 9.2961,9.2961l0,4.1316c0,5.12617 -4.16993,9.2961 -9.2961,9.2961z"/>
  <path id="svg_5" stroke-width="0" fill="#9b9999" d="m545.3381,165.26394c-2.84854,0 -5.1645,2.31696 -5.1645,5.1645l0,4.1316c0,2.84753 2.31595,5.1645 5.1645,5.1645l119.81636,0c2.84854,0 5.1645,-2.31696 5.1645,-5.1645l0,-4.1316c0,-2.84753 -2.31595,-5.1645 -5.1645,-5.1645l-119.81636,0z"/>
  <path id="svg_6" stroke-width="0" fill="#9b9999" d="m507.08791,376.97546l-479.26542,0c-5.12617,0 -9.2961,-4.16993 -9.2961,-9.2961l0,-303.67248c0,-5.12617 4.16993,-9.2961 9.2961,-9.2961l479.26542,0c5.12617,0 9.2961,4.16993 9.2961,9.2961l0,303.67249c0,5.12617 -4.16993,9.2961 -9.2961,9.2961l0,-0.00001z"/>
  <path id="svg_7" stroke-width="0" fill="#9b9999" d="m508.15371,478.19962l-221.04052,0c-5.12617,0 -9.2961,-4.16993 -9.2961,-9.2961l0,-72.30297c0,-5.12617 4.16993,-9.2961 9.2961,-9.2961l221.04052,0c5.12617,0 9.2961,4.16993 9.2961,9.2961l0,72.30297c0,5.12617 -4.16993,9.2961 -9.2961,9.2961z"/>
  <path id="svg_8" stroke-width="0" fill="#9b9999" d="m246.97536,479.69326l-221.04052,0c-5.12617,0 -9.2961,-4.16993 -9.2961,-9.2961l0,-72.30297c0,-5.12617 4.16993,-9.2961 9.2961,-9.2961l221.04052,0c5.12617,0 9.2961,4.16993 9.2961,9.2961l0,72.30297c0,5.12617 -4.16993,9.2961 -9.2961,9.2961z"/>
  <path id="svg_9" stroke-width="0" fill="#9b9999" d="m766.37862,387.30446c5.12617,0 9.2961,4.16993 9.2961,9.2961l0,72.30297c0,5.12617 -4.16993,9.2961 -9.2961,9.2961l-221.04052,0c-5.12617,0 -9.2961,-4.16993 -9.2961,-9.2961l0,-72.30297c0,-5.12617 4.16993,-9.2961 9.2961,-9.2961"/>
  <path id="svg_10" stroke-width="0" fill="#9b9999" d="m545.3381,199.31673c-2.84854,0 -5.1645,2.31696 -5.1645,5.1645s2.31595,5.1645 5.1645,5.1645l183.85613,0c2.84854,0 5.1645,-2.31696 5.1645,-5.1645s-2.31595,-5.1645 -5.1645,-5.1645l-183.85613,0z"/>
  <path id="svg_11" stroke-width="0" fill="#9b9999" d="m545.3381,228.23792c-2.84854,0 -5.1645,2.31696 -5.1645,5.1645s2.31595,5.1645 5.1645,5.1645l183.85613,0c2.84854,0 5.1645,-2.31696 5.1645,-5.1645s-2.31595,-5.1645 -5.1645,-5.1645l-183.85613,0z"/>
  <path id="svg_12" stroke-width="0" fill="#9b9999" d="m545.3381,255.09331c-2.84854,0 -5.1645,2.31696 -5.1645,5.1645s2.31595,5.1645 5.1645,5.1645l119.81636,0c2.84854,0 5.1645,-2.31696 5.1645,-5.1645s-2.31595,-5.1645 -5.1645,-5.1645"/>
  <path id="svg_13" stroke-width="0" fill="#9b9999" d="m725.06263,42.31598l-20.65799,0c-5.12617,0 -9.2961,-4.16993 -9.2961,-9.2961l0,-4.1316c0,-5.12617 4.16993,-9.2961 9.2961,-9.2961l20.65799,0c5.12617,0 9.2961,4.16993 9.2961,9.2961l0,4.1316c0,5.12617 -4.16993,9.2961 -9.2961,9.2961z"/>
  <path id="svg_14" stroke-width="0" fill="#9b9999" d="m766.37862,42.31598l-20.65799,0c-5.12617,0 -9.2961,-4.16993 -9.2961,-9.2961l0,-4.1316c0,-5.12617 4.16993,-9.2961 9.2961,-9.2961l20.65799,0c5.12617,0 9.2961,4.16993 9.2961,9.2961l0,4.1316c0,5.12617 -4.16993,9.2961 -9.2961,9.2961z"/>
  <path id="svg_15" stroke-width="0" fill="#ed9da0" d="m297.19075,90.80456c0,-8.51298 6.90113,-15.41408 15.41413,-15.41408s15.41391,6.9011 15.41391,15.41408c0,6.46357 -3.98006,11.99452 -9.62154,14.28462c1.81438,4.0945 4.45508,7.45836 4.45508,7.45836l-15.19068,12.65885l-3.22791,-21.33363c-4.34911,-2.7251 -7.24299,-7.55742 -7.24299,-13.06819l0,-0.00001z"/>
  <path id="svg_16" stroke-width="0" fill="#ed9da0" d="m270.17447,193.04143l6.76133,-13.32408l7.77948,3.94772l-6.76133,13.32408c0.72216,2.09962 0.562,4.67597 -0.64253,7.04963c-2.1076,4.1533 -6.60251,6.10621 -10.03972,4.36199c-3.4372,-1.74422 -4.51506,-6.52505 -2.40746,-10.67834c1.20453,-2.37366 3.18933,-4.0241 5.31022,-4.681l0,0l0.00001,0z"/>
  <polyline id="svg_17" stroke-width="0" fill="#6c63ff" points="316.06222 132.7994 281.90439 196.64136 268.54882 189.49563 298.47119 124.08072"/>
  <path id="svg_18" stroke-width="0" fill="#ed9da0" d="m297.40342,147.76098l-9.30975,43.23919l40.57421,1.41538s-5.31585,-30.02899 -3.42867,-35.21871l-27.8358,-9.43586l0.00002,0l-0.00001,0z"/>
  <rect id="svg_19" transform="rotate(-36.3985 -120.441 275.566)" stroke-width="0" fill="#ed9da0" height="9.48139" width="9.48141" y="591.77871" x="233.68539"/>
  <path id="svg_20" stroke-width="0" fill="#090814" d="m369.31152,329.85816l-16.22226,11.95944c-1.38654,1.02218 -3.01399,1.73193 -4.70648,2.05249l-4.05045,0.7672c-0.83747,0.15863 -1.70545,-0.1822 -2.21125,-0.86826c-0.59316,-0.80459 -0.57634,-1.91566 0.04092,-2.70192l4.91122,-6.2558l6.46493,-13.32946l0.03736,0.03416c0.93441,0.85418 2.35368,2.13903 2.46013,2.20196c1.99656,0.442 3.52979,0.19365 4.55737,-0.73769c1.7924,-1.62451 1.43108,-4.81084 1.42721,-4.84285l-0.00294,-0.02449l0.02125,-0.01256c0.48822,-0.28748 0.95867,-0.3519 1.39822,-0.19149c0.93315,0.34056 1.4201,1.56548 1.48986,1.75298c0.91099,0.12765 3.28029,2.84424 3.47074,3.0641c1.36319,0.24696 2.30167,0.75862 2.78926,1.52091c0.42631,0.66643 0.50894,1.51628 0.24576,2.52595c-0.31665,1.21479 -1.06985,2.31053 -2.12086,3.08536l0,-0.00003l0.00001,0z"/>
  <rect id="svg_21" stroke-width="0" fill="#ed9da0" height="9.48139" width="9.48139" y="336.59286" x="284.9442"/>
  <path id="svg_22" stroke-width="0" fill="#090814" d="m292.8073,354.69885l-20.15415,0c-1.72259,0 -3.45371,-0.39445 -5.00623,-1.14074l-3.7155,-1.78603c-0.76823,-0.36926 -1.26463,-1.15866 -1.26463,-2.01101c0,-0.99962 0.67285,-1.88394 1.63626,-2.15053l7.66526,-2.12103l13.11336,-6.89272l0.00981,0.04966c0.24525,1.24203 0.62522,3.11841 0.67355,3.23222c1.34477,1.54055 2.72623,2.25045 4.10603,2.11057c2.40669,-0.24399 4.00663,-3.0231 4.02251,-3.05115l0.01216,-0.02145l0.02455,0.0025c0.56357,0.05833 0.98043,0.28563 1.23907,0.67557c0.54901,0.82784 0.2141,2.10275 0.15898,2.29505c0.65751,0.64331 0.95256,4.23588 0.97538,4.52585c0.95069,1.00769 1.40247,1.97645 1.34261,2.87933c-0.05233,0.7894 -0.49009,1.52248 -1.30109,2.17901c-0.97571,0.7899 -2.2322,1.22491 -3.53796,1.22491l0.00003,0l0,-0.00001z"/>
  <polygon id="svg_23" stroke-width="0" fill="#090814" points="333.11211 178.00039 287.67098 178.00039 280.42759 339.12897 296.43043 339.12897 306.76985 270.60663 348.25914 325.4245 363.40617 311.72004 333.11211 270.60663 333.11211 178.00039"/>
  <path id="svg_24" stroke-width="0" fill="#6c63ff" d="m305.07822,113.15431l17.45634,-4.24614l11.18947,14.32697c2.66536,5.43736 3.08598,11.70469 1.17107,17.44944l-9.27843,27.8353s-28.30759,-0.47179 -34.44089,-16.98455l-1.75829,-3.66311c-2.40337,-5.00704 -1.85823,-10.93012 1.41872,-15.41436l14.24203,-19.30354l-0.00002,0l0,-0.00001z"/>
  <path id="svg_25" stroke-width="0" fill="#090814" d="m333.86231,101.03615s-0.74728,5.42314 -7.59235,5.79487l-6.84507,0.37173s3.75809,-16.97587 -1.07374,-13.75417c-4.83181,3.2217 -17.71665,-10.28465 -17.71665,-10.28465l-3.80187,7.13038s-9.08296,-3.28913 0.98332,-11.34337c0,0 12.01051,-9.28559 24.76113,-3.70958c12.75062,5.57601 11.28521,25.79478 11.28521,25.79478l0.00002,0l0,0.00001z"/>
  <path id="svg_26" stroke-width="0" fill="#ed9da0" d="m323.65914,205.18107l-0.32408,-14.93792l8.72177,-0.18921l0.32408,14.93792c1.62727,1.51061 2.70146,3.85781 2.75919,6.51898c0.10101,4.65635 -2.94097,8.49881 -6.79449,8.58241s-7.05929,-3.62329 -7.16032,-8.27966c-0.05773,-2.66118 0.91373,-5.05274 2.47388,-6.63251l-0.00002,0l-0.00001,-0.00001z"/>
  <polyline id="svg_27" stroke-width="0" fill="#6c63ff" points="335.70004 130.41608 335.70004 202.82156 320.553 202.82156 316.07642 131.02728"/>
  <polyline id="svg_28" stroke-width="1.5" stroke-miterlimit="10" stroke="#090814" fill="none" points="156.23421 354.3894 175.65931 354.3894 192.92545 354.3894 193.6196 354.3894 208.81971 354.3894 312.91394 354.3894 337.6845 354.3894 403.8304 354.3894"/>
  <path id="svg_29" stroke-width="0" fill="#b8cdd6" d="m272.69183,203.31631l-178.47349,0c-3.48197,0 -6.31457,-2.833 -6.31457,-6.31477l0,-93.58416c0,-3.48177 2.83259,-6.31477 6.31457,-6.31477l178.47351,0c3.48198,0 6.31456,2.833 6.31456,6.31477l0,93.58416c0,3.48177 -2.8326,6.31477 -6.31456,6.31477l-0.00002,0z"/>
  <path id="svg_30" stroke-width="0" fill="#6c63ff" d="m176.0072,207.01476l-0.04564,-0.04564l-0.04564,0.04564c-2.22087,-2.21906 -5.8201,-2.21631 -8.03915,0.00456c-2.21906,2.22179 -2.26377,5.86575 -0.0429,8.08479l0,0l8.13317,8.12496l8.1277,-8.135l0,0c2.21906,-2.22179 2.17249,-5.86574 -0.04746,-8.0848c-2.22087,-2.21906 -5.8201,-2.21631 -8.03915,0.00456l0,0l-0.00091,0.00091l-0.00002,0.00002z"/>
 </g>
</svg>